#N canvas 544 143 1176 811 10;
#X obj 93 142 tgl 15 0 empty empty empty 17 7 0 10 -262144 -1 -1 1
1;
#X obj 70 239 random 12;
#X obj 68 438 osc~;
#X obj 68 349 mtof;
#X obj 296 616 dac~;
#X obj 143 242 random 12;
#X obj 141 441 osc~;
#X obj 141 352 mtof;
#X obj 163 48 loadbang;
#X msg 163 83 1;
#X obj 255 456 r myAmp;
#X obj 95 47 r start;
#X obj 67 325 + 0;
#X obj 136 328 + 0;
#X floatatom 237 243 5 0 0 0 - pitchOffset -, f 5;
#X obj 143 280 + 40;
#X obj 70 277 + 40;
#X obj 238 283 * 7;
#X obj 69 406 line~;
#X msg 68 379 \$1 20;
#X obj 146 407 line~;
#X msg 145 380 \$1 20;
#X obj 473 33 r bounce;
#X obj 473 79 bng 15 250 50 0 empty empty empty 17 7 0 10 -262144 -1
-1;
#X obj 472 273 line~;
#X obj 361 320 *~;
#X obj 361 358 *~ 0.5;
#X msg 545 199 1 50 \,;
#X obj 473 158 del 50;
#X msg 472 200 0 50;
#X obj 361 284 *~ 2;
#X obj 473 113 t b b;
#X obj 92 203 metro 1000;
#X obj 66 495 *~ 0.1;
#X obj 183 518 *~ 0.1;
#X obj 359 203 mtof;
#X obj 359 235 phasor~ 440;
#X obj 359 257 -~ 0.5;
#X obj 360 395 rev3~ 100 90;
#X connect 0 0 32 0;
#X connect 1 0 16 0;
#X connect 2 0 33 0;
#X connect 3 0 19 0;
#X connect 5 0 15 0;
#X connect 6 0 34 0;
#X connect 7 0 21 0;
#X connect 8 0 9 0;
#X connect 9 0 0 0;
#X connect 10 0 33 1;
#X connect 10 0 34 1;
#X connect 11 0 0 0;
#X connect 12 0 3 0;
#X connect 13 0 7 0;
#X connect 14 0 17 0;
#X connect 15 0 13 0;
#X connect 16 0 12 0;
#X connect 17 0 13 1;
#X connect 17 0 12 1;
#X connect 18 0 2 0;
#X connect 19 0 18 0;
#X connect 20 0 6 0;
#X connect 21 0 20 0;
#X connect 22 0 23 0;
#X connect 22 0 35 0;
#X connect 23 0 31 0;
#X connect 24 0 25 1;
#X connect 25 0 26 0;
#X connect 26 0 38 0;
#X connect 27 0 24 0;
#X connect 28 0 29 0;
#X connect 29 0 24 0;
#X connect 30 0 25 0;
#X connect 31 0 28 0;
#X connect 31 1 27 0;
#X connect 32 0 1 0;
#X connect 32 0 5 0;
#X connect 33 0 4 0;
#X connect 34 0 4 1;
#X connect 35 0 36 0;
#X connect 36 0 37 0;
#X connect 37 0 30 0;
#X connect 38 0 4 0;
#X connect 38 0 4 1;
